<svg xmlns="http://www.w3.org/2000/svg" xmlns:xlink="http://www.w3.org/1999/xlink" style="enable-background:new 0 0 1360.3 482.3" id="logo_x5F_withtype_xA0_Image_1_" x="0" y="0" version="1.1" viewBox="0 0 1360.3 482.3" xml:space="preserve"><style type="text/css"/><image id="logo_x5F_withtype_xA0_Image" width="5668" height="3514" transform="matrix(0.24 0 0 0.24 0 0)" xlink:href="EC8BD75C.png" style="display:none;overflow:visible"/><g><g><path d="M541.9,349.6l-99.1,1.7c0,0,69.8,131,237.4,131s237.5-132.7,237.5-132.7h-99.1c0,0-52.2,49.4-138.4,49.4 S541.9,349.6,541.9,349.6z" class="st0"/></g><line x1="442.8" x2="442.8" y1="295.6" y2="331.6" class="st1"/><line x1="388.8" x2="424.8" y1="349.6" y2="349.6" class="st1"/><line x1="388.8" x2="424.8" y1="482.3" y2="482.3" class="st1"/><line x1="442.8" x2="442.8" y1="536.3" y2="500.3" class="st1"/><line x1="917.6" x2="917.6" y1="295.6" y2="331.6" class="st1"/><line x1="971.6" x2="935.6" y1="349.6" y2="349.6" class="st1"/><line x1="971.6" x2="935.6" y1="482.3" y2="482.3" class="st1"/><line x1="917.6" x2="917.6" y1="536.3" y2="500.3" class="st1"/></g><g><g><path d="M489.4,288.2c0,0-32.9-48.7-28.5-119c4.5-70.3,42.2-119.7,42.2-119.7l-32.9-32.9c0,0-52.5,58.3-65.5,135.8 c-13,77.5,10.6,142.6,10.6,142.6L489.4,288.2z" class="st0"/></g><line x1="400.8" x2="400.8" y1="-37.3" y2="-1.3" class="st1"/><line x1="346.8" x2="382.8" y1="16.7" y2="16.7" class="st1"/><line x1="346.8" x2="382.8" y1="295.1" y2="295.1" class="st1"/><line x1="400.8" x2="400.8" y1="349.1" y2="313.1" class="st1"/><line x1="503.1" x2="503.1" y1="-37.3" y2="-1.3" class="st1"/><line x1="557.1" x2="521.1" y1="16.7" y2="16.7" class="st1"/><line x1="557.1" x2="521.1" y1="295.1" y2="295.1" class="st1"/><line x1="503.1" x2="503.1" y1="349.1" y2="313.1" class="st1"/></g><g><g><path d="M870.7,288.2c0,0,32.9-48.7,28.5-119C894.7,98.9,857,49.6,857,49.6l32.9-32.9c0,0,52.5,58.3,65.5,135.8 c13,77.5-10.6,142.6-10.6,142.6L870.7,288.2z" class="st0"/></g><line x1="857" x2="857" y1="-37.3" y2="-1.3" class="st1"/><line x1="803" x2="839" y1="16.7" y2="16.7" class="st1"/><line x1="803" x2="839" y1="295.1" y2="295.1" class="st1"/><line x1="857" x2="857" y1="349.1" y2="313.1" class="st1"/><line x1="959.3" x2="959.3" y1="-37.3" y2="-1.3" class="st1"/><line x1="1013.3" x2="977.3" y1="16.7" y2="16.7" class="st1"/><line x1="1013.3" x2="977.3" y1="295.1" y2="295.1" class="st1"/><line x1="959.3" x2="959.3" y1="349.1" y2="313.1" class="st1"/></g><g><g><polygon points="0 335.1 565.8 325.8 680.2 64.3 680.2 0 513.4 286.1" class="st2"/></g><line x1="0" x2="0" y1="-54" y2="-18" class="st1"/><line x1="-54" x2="-18" y1="0" y2="0" class="st1"/><line x1="-54" x2="-18" y1="335.1" y2="335.1" class="st1"/><line x1="0" x2="0" y1="389.1" y2="353.1" class="st1"/><line x1="680.2" x2="680.2" y1="-54" y2="-18" class="st1"/><line x1="734.2" x2="698.2" y1="0" y2="0" class="st1"/><line x1="734.2" x2="698.2" y1="335.1" y2="335.1" class="st1"/><line x1="680.2" x2="680.2" y1="389.1" y2="353.1" class="st1"/></g><g><g><polygon points="1360.4 335.1 794.6 325.8 680.3 64.3 680.2 0 847 286.1" class="st2"/></g><line x1="680.2" x2="680.2" y1="-54" y2="-18" class="st1"/><line x1="626.2" x2="662.2" y1="0" y2="0" class="st1"/><line x1="626.2" x2="662.2" y1="335.1" y2="335.1" class="st1"/><line x1="680.2" x2="680.2" y1="389.1" y2="353.1" class="st1"/><line x1="1360.4" x2="1360.4" y1="-54" y2="-18" class="st1"/><line x1="1414.4" x2="1378.4" y1="0" y2="0" class="st1"/><line x1="1414.4" x2="1378.4" y1="335.1" y2="335.1" class="st1"/><line x1="1360.4" x2="1360.4" y1="389.1" y2="353.1" class="st1"/></g></svg>